<svg width="56" height="56" viewBox="0 0 56 56" fill="none" xmlns="http://www.w3.org/2000/svg">
<path fill-rule="evenodd" clip-rule="evenodd" d="M36.6702 39.6052H19.8235C18.8575 39.6052 18.0735 38.8212 18.0735 37.8552C18.0735 36.8892 18.8575 36.1052 19.8235 36.1052H36.6702C37.6362 36.1052 38.4202 36.8892 38.4202 37.8552C38.4202 38.8212 37.6362 39.6052 36.6702 39.6052" fill="#FF80A1"/>
<path fill-rule="evenodd" clip-rule="evenodd" d="M36.6702 29.8368H19.8235C18.8575 29.8368 18.0735 29.0528 18.0735 28.0868C18.0735 27.1208 18.8575 26.3368 19.8235 26.3368H36.6702C37.6362 26.3368 38.4202 27.1208 38.4202 28.0868C38.4202 29.0528 37.6362 29.8368 36.6702 29.8368" fill="#FF80A1"/>
<path fill-rule="evenodd" clip-rule="evenodd" d="M26.2511 20.0909H19.8228C18.8568 20.0909 18.0728 19.3069 18.0728 18.3409C18.0728 17.3749 18.8568 16.5909 19.8228 16.5909H26.2511C27.2171 16.5909 28.0011 17.3749 28.0011 18.3409C28.0011 19.3069 27.2171 20.0909 26.2511 20.0909" fill="#FF80A1"/>
<mask id="mask0" mask-type="alpha" maskUnits="userSpaceOnUse" x="7" y="4" width="43" height="48">
<path fill-rule="evenodd" clip-rule="evenodd" d="M7 4.66711H49.3843V51.1233H7V4.66711Z" fill="white"/>
</mask>
<g mask="url(#mask0)">
<path fill-rule="evenodd" clip-rule="evenodd" d="M37.1203 8.16663L19.1793 8.17596C13.7473 8.20863 10.4993 11.5686 10.4993 17.1663V38.6236C10.4993 44.2586 13.7776 47.6233 19.2633 47.6233L37.2043 47.6163C42.6363 47.5836 45.8843 44.219 45.8843 38.6236V17.1663C45.8843 11.5313 42.6083 8.16663 37.1203 8.16663ZM19.2656 51.1233C11.9296 51.1233 6.99927 46.0996 6.99927 38.6236V17.1663C6.99927 9.62263 11.7756 4.72029 19.1676 4.67596L37.1179 4.66663H37.1203C44.4563 4.66663 49.3843 9.69029 49.3843 17.1663V38.6236C49.3843 46.165 44.6079 51.0696 37.2159 51.1163L19.2656 51.1233Z" fill="#FF80A1"/>
</g>
</svg>
