<svg width="56" height="56" viewBox="0 0 56 56" fill="none" xmlns="http://www.w3.org/2000/svg">
<mask id="mask0" mask-type="alpha" maskUnits="userSpaceOnUse" x="7" y="4" width="40" height="48">
<path fill-rule="evenodd" clip-rule="evenodd" d="M7.00049 4.69397H46.7889V51.0188H7.00049V4.69397Z" fill="white"/>
</mask>
<g mask="url(#mask0)">
<path fill-rule="evenodd" clip-rule="evenodd" d="M17.671 8.19397C13.8046 8.19397 10.594 11.3253 10.503 15.187V40.198C10.419 44.167 13.5456 47.4336 17.4773 47.52H36.3376C40.232 47.38 43.3143 44.167 43.2886 40.2096V19.4593L32.476 8.19397H17.699H17.671ZM17.699 51.02H17.405C11.5436 50.894 6.87698 46.022 7.00298 40.1606V15.145C7.14065 9.35597 11.9193 4.69397 17.664 4.69397H17.706H33.2203C33.6963 4.69397 34.1513 4.88764 34.4827 5.23064L46.3033 17.5436C46.6137 17.868 46.7887 18.3043 46.7887 18.7546V40.198C46.826 46.0523 42.262 50.81 36.3983 51.02H17.699Z" fill="#FF80A1"/>
</g>
<path fill-rule="evenodd" clip-rule="evenodd" d="M45.0284 20.9634H38.6024C34.33 20.9517 30.8604 17.4704 30.8604 13.205V6.41736C30.8604 5.45136 31.6444 4.66736 32.6104 4.66736C33.5764 4.66736 34.3604 5.45136 34.3604 6.41736V13.205C34.3604 15.5477 36.2644 17.4564 38.607 17.4634H45.0284C45.9944 17.4634 46.7784 18.2474 46.7784 19.2134C46.7784 20.1794 45.9944 20.9634 45.0284 20.9634" fill="#FF80A1"/>
<path fill-rule="evenodd" clip-rule="evenodd" d="M25.9996 38.9671C25.0336 38.9671 24.2496 38.1831 24.2496 37.2171V23.1215C24.2496 22.1555 25.0336 21.3715 25.9996 21.3715C26.9656 21.3715 27.7496 22.1555 27.7496 23.1215V37.2171C27.7496 38.1831 26.9656 38.9671 25.9996 38.9671" fill="#FF80A1"/>
<path fill-rule="evenodd" clip-rule="evenodd" d="M25.9972 38.9648C25.5329 38.9648 25.0849 38.7804 24.7582 38.4491L19.2865 32.9564C18.6052 32.2704 18.6075 31.1621 19.2912 30.4808C19.9772 29.7994 21.0855 29.7994 21.7669 30.4854L25.9972 34.7368L30.2275 30.4854C30.9089 29.7994 32.0172 29.7994 32.7032 30.4808C33.3869 31.1621 33.3892 32.2704 32.7079 32.9564L27.2362 38.4491C26.9095 38.7804 26.4615 38.9648 25.9972 38.9648" fill="#FF80A1"/>
</svg>
