<svg width="56" height="56" viewBox="0 0 56 56" fill="none" xmlns="http://www.w3.org/2000/svg">
<mask id="mask0" mask-type="alpha" maskUnits="userSpaceOnUse" x="4" y="33" width="38" height="18">
<path fill-rule="evenodd" clip-rule="evenodd" d="M4.66663 33.7306H41.426V50.8547H4.66663V33.7306Z" fill="white"/>
</mask>
<g mask="url(#mask0)">
<path fill-rule="evenodd" clip-rule="evenodd" d="M23.0463 37.2306C13.174 37.2306 8.16663 38.9269 8.16663 42.2683C8.16663 45.6423 13.174 47.3549 23.0463 47.3549C32.9186 47.3549 37.926 45.6586 37.926 42.3196C37.926 38.9409 32.9186 37.2306 23.0463 37.2306M23.0463 50.8549C18.501 50.8549 4.66663 50.8549 4.66663 42.2683C4.66663 34.6149 15.155 33.7306 23.0463 33.7306C27.5916 33.7306 41.426 33.7306 41.426 42.3196C41.426 49.9706 30.9376 50.8549 23.0463 50.8549" fill="#FF80A1"/>
</g>
<path fill-rule="evenodd" clip-rule="evenodd" d="M23.0463 8.16663C18.137 8.16663 14.14 12.1636 14.14 17.0753C14.1306 19.453 15.0453 21.6813 16.7136 23.3636C18.3843 25.0436 20.6103 25.9746 22.981 25.984L23.0463 27.734V25.984C27.958 25.984 31.955 21.987 31.955 17.0753C31.955 12.1636 27.958 8.16663 23.0463 8.16663M23.0463 29.484H22.974C19.663 29.4723 16.5596 28.1726 14.2333 25.83C11.9046 23.485 10.6283 20.3723 10.64 17.0683C10.64 10.234 16.205 4.66663 23.0463 4.66663C29.89 4.66663 35.455 10.234 35.455 17.0753C35.455 23.9166 29.89 29.484 23.0463 29.484" fill="#FF80A1"/>
<path fill-rule="evenodd" clip-rule="evenodd" d="M44.8096 31.3359C43.8436 31.3359 43.0596 30.5519 43.0596 29.5859V20.2269C43.0596 19.2609 43.8436 18.4769 44.8096 18.4769C45.7756 18.4769 46.5596 19.2609 46.5596 20.2269V29.5859C46.5596 30.5519 45.7756 31.3359 44.8096 31.3359" fill="#FF80A1"/>
<path fill-rule="evenodd" clip-rule="evenodd" d="M49.5833 26.6555H40.0399C39.0739 26.6555 38.2899 25.8715 38.2899 24.9055C38.2899 23.9395 39.0739 23.1555 40.0399 23.1555H49.5833C50.5493 23.1555 51.3333 23.9395 51.3333 24.9055C51.3333 25.8715 50.5493 26.6555 49.5833 26.6555" fill="#FF80A1"/>
</svg>
