<svg width="120" height="30" viewBox="0 0 120 30" fill="none" xmlns="http://www.w3.org/2000/svg">
<path d="M48.0092 8.72077V6.6451H56.6973V19.0992C56.6973 19.969 56.5985 20.7893 56.4008 21.5603C56.2229 22.3313 55.8967 23.0034 55.4223 23.5767C54.9676 24.1302 54.3449 24.575 53.5542 24.911C52.7832 25.2273 51.8047 25.3855 50.6186 25.3855C49.4325 25.3855 48.4342 25.2175 47.6237 24.8814C46.8132 24.5453 46.2201 24.2192 45.8445 23.9029L46.8231 21.9161C47.1987 22.1929 47.6929 22.4894 48.3057 22.8057C48.9383 23.122 49.6697 23.2802 50.5 23.2802C51.7651 23.2802 52.7041 22.9441 53.317 22.272C53.9495 21.5998 54.2658 20.4632 54.2658 18.8619V8.72077H48.0092ZM71.7905 24.6145C71.2567 24.7529 70.5451 24.9012 69.6555 25.0593C68.7857 25.2175 67.7577 25.2965 66.5716 25.2965C65.5239 25.2965 64.6541 25.1483 63.9622 24.8517C63.2703 24.5354 62.7069 24.1005 62.272 23.547C61.8371 22.9737 61.5307 22.3016 61.3528 21.5307C61.1749 20.7597 61.0859 19.9097 61.0859 18.9805V11.2412H63.5174V18.4468C63.5174 20.1469 63.7645 21.3527 64.2587 22.0644C64.7727 22.7761 65.6227 23.1319 66.8088 23.1319C67.0658 23.1319 67.3228 23.122 67.5798 23.1022C67.8566 23.0825 68.1136 23.0627 68.3508 23.0429C68.588 23.0034 68.7956 22.9737 68.9735 22.954C69.1514 22.9144 69.27 22.8848 69.3293 22.865V11.2412H71.7905V24.6145ZM77.0686 25V11.9825C79.085 11.2907 81.1211 10.9447 83.177 10.9447C83.8096 10.9447 84.4126 10.9744 84.9858 11.0337C85.5591 11.0732 86.1917 11.172 86.8836 11.3302L86.4388 13.4948C85.8062 13.3169 85.2428 13.2082 84.7486 13.1686C84.2742 13.1093 83.7503 13.0797 83.177 13.0797C81.9712 13.0797 80.7455 13.2477 79.5001 13.5838V25H77.0686ZM95.7793 17.4386C96.3131 17.834 96.916 18.3381 97.5881 18.9509C98.2603 19.5439 98.9225 20.1864 99.5749 20.8783C100.247 21.5702 100.88 22.2819 101.473 23.0133C102.066 23.7249 102.54 24.3872 102.896 25H99.99C99.6144 24.3872 99.1498 23.7645 98.5963 23.1319C98.0428 22.4795 97.4498 21.8568 96.8172 21.2638C96.2044 20.6707 95.5817 20.1271 94.9491 19.6329C94.3363 19.1387 93.7827 18.7236 93.2885 18.3875V25H90.8274V4.86595L93.2885 4.45081V16.9938C94.3758 16.0449 95.463 15.1059 96.5503 14.1768C97.6376 13.228 98.6161 12.2494 99.4859 11.2412H102.362C101.512 12.2494 100.484 13.2873 99.2783 14.3547C98.0922 15.4222 96.9259 16.4502 95.7793 17.4386ZM116.002 13.0797C115.647 13.4948 115.162 14.078 114.549 14.8292C113.937 15.5606 113.274 16.381 112.563 17.2903C111.871 18.1799 111.179 19.1189 110.487 20.1073C109.795 21.0958 109.182 22.0347 108.649 22.9243H116.21V25H105.713V23.3691C106.128 22.5784 106.642 21.7185 107.255 20.7893C107.887 19.8405 108.54 18.9114 109.212 18.002C109.884 17.0729 110.536 16.1932 111.169 15.3629C111.821 14.5327 112.385 13.8408 112.859 13.2873H106.098V11.2412H116.002V13.0797Z" fill="#6C72B0"/>
<path d="M1 25.0193L18.2973 9.26641L34.0502 25.0193" stroke="url(#paint0_linear)" stroke-width="2.47104"/>
<path d="M1 25.0193L18.2973 9.26641L34.0502 25.0193" stroke="url(#paint1_linear)" stroke-width="2.47104"/>
<defs>
<linearGradient id="paint0_linear" x1="-151.587" y1="106.873" x2="17.5251" y2="25.0193" gradientUnits="userSpaceOnUse">
<stop offset="0.253059" stop-color="#6C72B0"/>
<stop offset="0.650407" stop-color="#F78AA4"/>
</linearGradient>
<linearGradient id="paint1_linear" x1="17.5251" y1="9.26641" x2="17.5251" y2="25.0193" gradientUnits="userSpaceOnUse">
<stop stop-color="#A3A8DE"/>
<stop offset="1" stop-color="white" stop-opacity="0"/>
</linearGradient>
</defs>
</svg>
