<svg width="56" height="56" viewBox="0 0 56 56" fill="none" xmlns="http://www.w3.org/2000/svg">
<mask id="mask0" mask-type="alpha" maskUnits="userSpaceOnUse" x="7" y="4" width="40" height="48">
<path fill-rule="evenodd" clip-rule="evenodd" d="M7.00049 4.69397H46.7889V51.0188H7.00049V4.69397Z" fill="white"/>
</mask>
<g mask="url(#mask0)">
<path fill-rule="evenodd" clip-rule="evenodd" d="M17.671 8.19397C13.8046 8.19397 10.594 11.3253 10.503 15.187V40.198C10.419 44.167 13.5456 47.4336 17.4773 47.52H36.3376C40.232 47.38 43.3143 44.167 43.2887 40.2096V19.4593L32.476 8.19397H17.699H17.671ZM17.699 51.02H17.405C11.5436 50.894 6.87698 46.022 7.00298 40.1606V15.145C7.14065 9.35597 11.9193 4.69397 17.664 4.69397H17.706H33.2203C33.6963 4.69397 34.1513 4.88764 34.4826 5.23064L46.3033 17.5436C46.6136 17.868 46.7886 18.3043 46.7886 18.7546V40.198C46.826 46.0523 42.262 50.81 36.3983 51.02H17.699Z" fill="#FF80A1"/>
</g>
<path fill-rule="evenodd" clip-rule="evenodd" d="M45.0284 20.9634H38.6024C34.33 20.9517 30.8604 17.4704 30.8604 13.205V6.41736C30.8604 5.45136 31.6444 4.66736 32.6104 4.66736C33.5764 4.66736 34.3604 5.45136 34.3604 6.41736V13.205C34.3604 15.5477 36.2644 17.4564 38.607 17.4634H45.0284C45.9944 17.4634 46.7784 18.2474 46.7784 19.2134C46.7784 20.1794 45.9944 20.9634 45.0284 20.9634" fill="#FF80A1"/>
<path fill-rule="evenodd" clip-rule="evenodd" d="M25.9972 38.9671C25.0312 38.9671 24.2472 38.1831 24.2472 37.2171V23.1215C24.2472 22.1555 25.0312 21.3715 25.9972 21.3715C26.9632 21.3715 27.7472 22.1555 27.7472 23.1215V37.2171C27.7472 38.1831 26.9632 38.9671 25.9972 38.9671" fill="#FF80A1"/>
<path fill-rule="evenodd" clip-rule="evenodd" d="M20.5263 30.3674C20.0806 30.3674 19.6326 30.1971 19.2919 29.8564C18.6083 29.1751 18.6036 28.0691 19.2873 27.3831L24.7566 21.8858C25.4146 21.2254 26.5813 21.2254 27.2369 21.8858L32.7109 27.3831C33.3923 28.0691 33.3899 29.1751 32.7063 29.8564C32.0203 30.5378 30.9119 30.5378 30.2306 29.8518L25.9979 25.6004L21.7653 29.8518C21.4246 30.1971 20.9743 30.3674 20.5263 30.3674" fill="#FF80A1"/>
</svg>
