<?xml version="1.0" standalone="no"?>
<!DOCTYPE svg PUBLIC "-//W3C//DTD SVG 20010904//EN"
 "http://www.w3.org/TR/2001/REC-SVG-20010904/DTD/svg10.dtd">
<svg version="1.0" xmlns="http://www.w3.org/2000/svg"
 width="700.000000pt" height="700.000000pt" viewBox="0 0 700.000000 700.000000"
 preserveAspectRatio="xMidYMid meet">
<metadata>
Created by potrace 1.14, written by Peter Selinger 2001-2017
</metadata>
<g transform="translate(0.000000,700.000000) scale(0.100000,-0.100000)"
fill="#000000" stroke="none">
<path d="M3590 5268 c-30 -28 -115 -108 -188 -176 -73 -69 -141 -132 -151
-141 -17 -15 -175 -161 -267 -248 -88 -82 -312 -292 -384 -358 -41 -38 -93
-86 -115 -107 -22 -20 -58 -54 -81 -75 -22 -21 -101 -94 -174 -163 -73 -69
-142 -133 -154 -143 -12 -10 -48 -44 -81 -75 -119 -112 -312 -292 -341 -318
-25 -23 -179 -166 -294 -274 -20 -19 -91 -84 -156 -145 -65 -60 -148 -138
-184 -172 -36 -34 -76 -71 -89 -82 -12 -11 -55 -50 -95 -88 -40 -37 -132 -124
-206 -193 -227 -210 -262 -244 -342 -321 l-78 -74 71 -75 c39 -41 100 -108
137 -147 36 -40 70 -73 74 -73 5 0 19 10 32 23 13 12 76 72 142 132 65 61 150
140 189 176 38 37 82 77 96 90 34 31 243 225 333 310 39 36 100 93 135 125 35
32 81 75 101 94 21 19 84 78 141 131 57 53 120 112 140 130 20 19 87 81 149
139 62 58 129 121 150 140 31 29 165 154 280 260 73 67 268 249 301 280 20 19
77 72 126 116 91 84 106 98 233 218 42 39 132 123 200 186 68 63 156 144 194
180 39 36 80 74 92 85 12 11 42 40 68 64 l46 45 131 -135 c72 -73 285 -291
473 -482 187 -192 409 -418 491 -502 83 -85 290 -296 460 -470 171 -174 363
-371 429 -438 65 -67 283 -290 485 -496 201 -206 372 -380 380 -388 11 -12 32
5 143 114 72 70 136 134 144 141 8 7 14 18 14 23 0 6 -78 90 -174 187 -96 97
-218 222 -272 277 -53 55 -248 255 -433 444 -185 188 -388 396 -451 461 -63
65 -253 259 -422 431 -168 173 -368 377 -443 454 -990 1013 -933 955 -942 955
-5 0 -33 -24 -63 -52z"/>
</g>
</svg>
